<svg viewBox="0 0 602.18 424.24" xmlns="http://www.w3.org/2000/svg"><g fill="#fff"><path d="m37.39 247.62c-3.81 0-7.23-.62-10.25-1.85s-5.58-2.96-7.69-5.18-3.69-4.87-4.77-7.92c-1.07-3.06-1.61-6.41-1.61-10.07v-37.18h5.84v36.11c0 6.28 1.67 11.3 5.01 15.07 3.34 3.78 8.1 5.66 14.3 5.66 2.94 0 5.7-.54 8.28-1.61s4.83-2.56 6.73-4.47c1.91-1.91 3.4-4.19 4.47-6.85s1.61-5.58 1.61-8.76v-35.15h5.84v60.77h-5.84v-11.32c-2.07 3.57-4.85 6.59-8.34 9.06-3.5 2.46-8.02 3.69-13.58 3.69"/><path d="m82.19 185.41h5.84v11.32c2.06-3.57 4.84-6.59 8.34-9.06 3.5-2.46 8.02-3.69 13.58-3.69 3.81 0 7.23.62 10.25 1.85s5.58 2.96 7.69 5.18c2.1 2.23 3.69 4.87 4.77 7.92 1.07 3.06 1.61 6.42 1.61 10.07v37.18h-5.84v-36.11c0-6.27-1.67-11.3-5.01-15.07s-8.1-5.66-14.3-5.66c-3.02 0-5.8.54-8.34 1.61s-4.77 2.56-6.67 4.47c-1.91 1.91-3.4 4.19-4.47 6.85s-1.61 5.58-1.61 8.76v35.15h-5.84z"/><path d="m176.81 247.62c-4.37 0-8.44-.85-12.22-2.56s-7.05-3.99-9.82-6.85-4.94-6.19-6.5-10.01c-1.56-3.81-2.34-7.87-2.34-12.16v-.24c0-4.29.78-8.34 2.34-12.15s3.72-7.19 6.5-10.13c2.77-2.94 6.04-5.26 9.82-6.97 3.77-1.71 7.84-2.56 12.22-2.56 2.86 0 5.46.31 7.8.91 2.34.61 4.51 1.44 6.5 2.49 1.99 1.06 3.79 2.26 5.42 3.62s3.16 2.79 4.59 4.3l-4.17 4.29c-2.62-2.7-5.52-5.04-8.7-7.03-3.18-1.98-7.03-2.98-11.56-2.98-3.5 0-6.73.67-9.71 2.02-2.98 1.34-5.56 3.18-7.75 5.52-2.18 2.33-3.91 5.08-5.18 8.24s-1.91 6.56-1.91 10.2v.24c0 3.64.66 7.06 1.97 10.26s3.1 5.99 5.36 8.36c2.27 2.37 4.9 4.23 7.92 5.58 3.02 1.34 6.28 2.02 9.77 2.02 4.29 0 8.12-.97 11.5-2.92 3.37-1.95 6.33-4.35 8.88-7.21l4.05 3.57c-3.1 3.5-6.61 6.4-10.55 8.7-3.93 2.3-8.68 3.46-14.24 3.46"/><path d="m240.21 242.02c3.59 0 6.92-.69 10-2.08 3.07-1.38 5.71-3.24 7.9-5.58 2.19-2.33 3.91-5.08 5.15-8.24s1.86-6.52 1.86-10.08v-.24c0-3.64-.64-7.06-1.92-10.26s-3.05-5.99-5.33-8.36c-2.27-2.37-4.95-4.23-8.02-5.58-3.07-1.34-6.37-2.02-9.88-2.02s-6.92.69-10 2.07c-3.07 1.39-5.71 3.24-7.9 5.58-2.19 2.33-3.91 5.08-5.15 8.24s-1.85 6.52-1.85 10.08v.24c0 3.64.64 7.06 1.92 10.26s3.05 5.99 5.33 8.36 4.95 4.23 8.02 5.58c3.07 1.34 6.36 2.02 9.88 2.02m-.25 5.61c-4.53 0-8.68-.85-12.45-2.56-3.78-1.71-7.05-3.99-9.83-6.85s-4.94-6.19-6.49-10.01c-1.55-3.81-2.32-7.87-2.32-12.16v-.24c0-4.29.78-8.34 2.32-12.15 1.55-3.81 3.73-7.19 6.55-10.13s6.14-5.26 9.95-6.97 7.98-2.56 12.51-2.56 8.68.85 12.45 2.56 7.05 3.99 9.83 6.85 4.95 6.2 6.49 10.01c1.55 3.81 2.32 7.86 2.32 12.15v.24c0 4.29-.77 8.34-2.32 12.15s-3.73 7.19-6.55 10.13-6.14 5.26-9.95 6.97-7.99 2.56-12.51 2.56"/><path d="m310.33 242.02c3.19 0 6.27-.64 9.26-1.91s5.63-3.06 7.95-5.36c2.31-2.3 4.16-5.05 5.55-8.22 1.39-3.18 2.09-6.71 2.09-10.61v-.24c0-3.89-.7-7.45-2.09-10.66-1.39-3.22-3.24-5.96-5.55-8.22s-4.96-4.03-7.95-5.3-6.07-1.91-9.26-1.91c-3.34 0-6.47.6-9.38 1.79s-5.44 2.9-7.59 5.12c-2.15 2.23-3.84 4.95-5.08 8.16-1.23 3.22-1.85 6.85-1.85 10.9v.24c0 3.97.64 7.59 1.91 10.84 1.27 3.26 3.01 6.02 5.2 8.28s4.74 4.01 7.64 5.24c2.91 1.23 5.95 1.85 9.14 1.85m-.52 5.61c-3.65 0-7.25-.71-10.78-2.15-3.54-1.43-6.69-3.49-9.47-6.19s-5.03-6.02-6.73-9.95c-1.71-3.93-2.56-8.36-2.56-13.29v-.24c0-4.93.85-9.35 2.56-13.29 1.71-3.93 3.95-7.27 6.73-10.01s5.94-4.85 9.47-6.32 7.13-2.2 10.78-2.2c3.02 0 5.8.4 8.34 1.19 2.54.8 4.83 1.87 6.85 3.22 2.03 1.35 3.85 2.9 5.48 4.65s3.08 3.57 4.35 5.48v-39.33h5.84v86.99h-5.84v-13.58c-1.35 1.99-2.84 3.89-4.47 5.72s-3.46 3.42-5.48 4.77-4.29 2.44-6.79 3.28c-2.5.83-5.27 1.25-8.28 1.25"/><path d="m404.06 212.94c-.24-3.1-.86-6.06-1.85-8.88-1-2.82-2.39-5.32-4.18-7.51-1.79-2.18-4-3.93-6.63-5.24s-5.7-1.97-9.2-1.97c-3.03 0-5.85.6-8.48 1.79s-4.92 2.84-6.87 4.95c-1.95 2.1-3.57 4.61-4.84 7.51s-2.03 6.02-2.27 9.35h44.33zm-20.67 34.68c-3.98 0-7.78-.76-11.41-2.26-3.62-1.51-6.81-3.65-9.56-6.44-2.75-2.78-4.92-6.12-6.51-10.01s-2.39-8.22-2.39-12.99v-.24c0-4.37.73-8.48 2.21-12.33 1.47-3.85 3.49-7.21 6.08-10.07 2.58-2.86 5.62-5.12 9.12-6.79 3.49-1.67 7.31-2.5 11.44-2.5s8.14.81 11.56 2.44 6.34 3.87 8.76 6.73 4.29 6.22 5.6 10.07 1.97 8.04 1.97 12.57v1.25c0 .28-.04.66-.12 1.13h-50.41c.24 3.79 1.08 7.16 2.51 10.08 1.43 2.93 3.23 5.42 5.38 7.47s4.6 3.62 7.35 4.68c2.75 1.07 5.63 1.6 8.66 1.6 4.78 0 8.82-.91 12.13-2.74s6.23-4.09 8.78-6.79l4.05 3.58c-3.1 3.34-6.62 6.1-10.56 8.28s-8.82 3.28-14.63 3.28"/><path d="m452.5 242.02c3.34 0 6.47-.6 9.38-1.79s5.44-2.9 7.58-5.12c2.15-2.22 3.84-4.94 5.08-8.16 1.23-3.22 1.85-6.85 1.85-10.9v-.24c0-3.97-.64-7.58-1.91-10.84s-3.01-6.02-5.2-8.28-4.74-4.01-7.65-5.24-5.95-1.85-9.14-1.85-6.27.64-9.26 1.91-5.63 3.06-7.94 5.36c-2.31 2.31-4.16 5.05-5.56 8.22-1.39 3.18-2.09 6.71-2.09 10.6v.24c0 3.89.7 7.45 2.09 10.67s3.24 5.96 5.56 8.22c2.31 2.26 4.96 4.03 7.94 5.3 2.99 1.27 6.07 1.91 9.26 1.91m.55 5.59c-3.02 0-5.8-.4-8.34-1.19s-4.83-1.87-6.85-3.22c-2.03-1.35-3.85-2.9-5.48-4.65s-3.08-3.57-4.35-5.48v13.11h-5.84v-86.99h5.84v39.8c1.27-1.98 2.74-3.89 4.41-5.72s3.51-3.42 5.54-4.77 4.29-2.44 6.79-3.28c2.5-.83 5.26-1.25 8.28-1.25 3.65 0 7.25.71 10.78 2.14s6.69 3.5 9.47 6.2 5.02 6.02 6.73 9.95 2.56 8.36 2.56 13.29v.24c0 4.93-.85 9.35-2.56 13.29-1.71 3.93-3.95 7.27-6.73 10.01s-5.94 4.85-9.47 6.32c-3.54 1.47-7.13 2.2-10.78 2.2"/><path d="m514.52 242.02c3.1 0 6.04-.46 8.82-1.37s5.22-2.17 7.33-3.8c2.1-1.62 3.77-3.58 5-5.88 1.23-2.29 1.85-4.82 1.85-7.59v-6.88c-2.54-.63-5.52-1.24-8.94-1.84-3.41-.59-7.31-.89-11.68-.89-6.43 0-11.38 1.29-14.84 3.86-3.45 2.57-5.18 5.99-5.18 10.26v.24c0 2.22.48 4.17 1.43 5.87s2.24 3.15 3.87 4.33c1.63 1.19 3.52 2.1 5.66 2.73 2.15.63 4.37.95 6.67.95m-.35 5.61c-2.86 0-5.68-.4-8.46-1.19s-5.29-1.99-7.51-3.58c-2.23-1.59-4.03-3.57-5.42-5.96-1.39-2.38-2.09-5.16-2.09-8.34v-.24c0-3.18.65-6 1.97-8.46 1.31-2.46 3.12-4.53 5.42-6.2s5.08-2.94 8.34-3.81 6.87-1.31 10.85-1.31c4.29 0 7.98.24 11.08.72s6.12 1.11 9.06 1.91v-2.61c0-6.16-1.77-10.78-5.3-13.86-3.54-3.08-8.44-4.62-14.72-4.62-3.74 0-7.15.46-10.25 1.37s-6.04 2.08-8.82 3.51l-2.15-5.13c3.34-1.62 6.71-2.92 10.13-3.9 3.41-.97 7.23-1.46 11.44-1.46 8.34 0 14.74 2.23 19.19 6.67 4.13 4.13 6.2 9.85 6.2 17.16v37.89h-5.72v-10.13c-1.03 1.43-2.29 2.84-3.75 4.23-1.47 1.39-3.16 2.62-5.07 3.69-1.9 1.07-4.07 1.95-6.49 2.62-2.43.67-5.07 1.01-7.92 1.01"/><path d="m556.59 185.41h5.84v17.28c1.19-2.7 2.7-5.2 4.53-7.51 1.83-2.3 3.89-4.27 6.19-5.9s4.83-2.86 7.57-3.69 5.62-1.21 8.64-1.13v6.44h-.6c-3.5 0-6.83.66-10.01 1.97s-5.98 3.26-8.4 5.84-4.35 5.76-5.78 9.53c-1.43 3.78-2.14 8.12-2.14 13.05v24.91h-5.84v-60.77z"/></g><path d="m295.39 98.95c-1.16-.7-2.67-.63-3.76.18l-19.31 12.37c-1.51-5.37-2.47-10.98-2.74-16.78-.92-19.33 5.6-37.33 17.02-51.21l52.68 47.89-18.65 20.52z" fill="#ff80f7"/><path d="m185.01 130.19c-7.22 7.03-15.86 12.62-25.46 16.31l-16.46-24.74 15.77-15.89z" fill="#ffc700"/><path d="m380.8 157.17-.69-14.58c-.06-1.32-.87-2.41-2.03-3.1l-48.49-24.92 19.72-21.73c1.43-1.58 1.32-3.83-.25-5.26l-55.35-50.31c12.74-12.75 30.08-20.98 49.46-21.91 41.34-1.97 76.57 30.06 78.54 71.39 1.45 30.35-15.45 57.4-40.9 70.42" fill="#0fc"/><path d="m247.02 8.99 32.3 29.36c-12.72 15.32-19.99 35.23-18.97 56.63.34 7.18 1.6 14.1 3.65 20.66l-47.84 30.66-51.44-46.76z" fill="#f06"/><path d="m459.35 292.63c-3.89 7.58-9.01 14.68-15.39 20.99-15.18 15.01-34.76 22.92-54.57 23.77l.2-41.53 50.4-21.14 19.37 17.91z" fill="#fff714"/><path d="m208.11 280.42-.93 48.09-49.62-.96 16.26-56.23c10.82 5.3 22.49 8.34 34.29 9.1" fill="#1700bf"/><path d="m355.37 301.82c-23.63 0-45.18-9.06-61.37-23.89l-36.87 36.95c-.83.83-1.87 1.24-3.11 1.24-1.04 0-2.07-.41-2.9-1.24l-34.61-34.61v87.26l82.29 47.46 82.29-47.46v-69.43c-8.16 2.41-16.78 3.72-25.7 3.72z" fill="#fff"/><path d="m285.85 325.1v51.82h-10.96v-41.42h-.3l-11.87 7.44v-9.72l12.83-8.12z" fill="#4ab0ff"/><path d="m314.49 378.05c-4.35-.02-8.09-1.09-11.22-3.21-3.13-2.13-5.53-5.2-7.21-9.24-1.68-4.03-2.51-8.88-2.49-14.55 0-5.65.84-10.47 2.52-14.45s4.08-7.01 7.21-9.1c3.13-2.08 6.86-3.12 11.2-3.12s8.07 1.05 11.2 3.14 5.54 5.12 7.22 9.1 2.52 8.78 2.51 14.43c0 5.68-.84 10.54-2.52 14.57s-4.08 7.11-7.2 9.24-6.86 3.19-11.21 3.19zm0-9.08c2.97 0 5.34-1.49 7.11-4.48s2.65-7.46 2.63-13.43c0-3.93-.4-7.2-1.2-9.82-.8-2.61-1.93-4.58-3.39-5.89-1.46-1.32-3.18-1.97-5.15-1.97-2.95 0-5.31 1.48-7.08 4.43s-2.66 7.37-2.68 13.26c0 3.98.4 7.3 1.2 9.96s1.94 4.65 3.4 5.97 3.19 1.99 5.16 1.99z" fill="#4ab0ff"/></svg>